<mxfile host="65bd71144e">
    <diagram id="IMpaOQ4hiIl60WFNixn_" name="Page-1">
        <mxGraphModel dx="793" dy="529" grid="1" gridSize="10" guides="1" tooltips="1" connect="1" arrows="1" fold="1" page="1" pageScale="1" pageWidth="850" pageHeight="1100" background="#ffffff" math="0" shadow="0">
            <root>
                <mxCell id="0"/>
                <mxCell id="1" parent="0"/>
                <mxCell id="2" value="&lt;font color=&quot;#030303&quot;&gt;&amp;lt;&amp;lt;Interface&amp;gt;&amp;gt;&lt;br&gt;IBrandstofAuto&lt;/font&gt;" style="swimlane;fontStyle=0;childLayout=stackLayout;horizontal=1;startSize=40;horizontalStack=0;resizeParent=1;resizeParentMax=0;resizeLast=0;collapsible=1;marginBottom=0;whiteSpace=wrap;html=1;strokeColor=#666666;fillColor=#f5f5f5;fontColor=#333333;" parent="1" vertex="1">
                    <mxGeometry x="300" y="440" width="140" height="50" as="geometry"/>
                </mxCell>
                <mxCell id="19" value="" style="edgeStyle=none;html=1;strokeColor=#030303;fontColor=#000000;exitX=0.879;exitY=-0.075;exitDx=0;exitDy=0;exitPerimeter=0;" parent="1" source="6" target="-0TBXb-f6-NKO0b1xfG4-29" edge="1">
                    <mxGeometry relative="1" as="geometry"/>
                </mxCell>
                <mxCell id="6" value="&lt;font color=&quot;#000000&quot;&gt;+Tanken(): void&lt;br&gt;+MotoAanzetten(): void&lt;/font&gt;" style="rounded=0;whiteSpace=wrap;html=1;align=left;strokeColor=#666666;fillColor=#f5f5f5;fontColor=#333333;" parent="1" vertex="1">
                    <mxGeometry x="300" y="490" width="140" height="40" as="geometry"/>
                </mxCell>
                <mxCell id="7" value="&lt;font color=&quot;#000000&quot;&gt;&amp;lt;&amp;lt;Interface&amp;gt;&amp;gt;&lt;br&gt;IElektrischAuto&lt;/font&gt;" style="swimlane;fontStyle=0;childLayout=stackLayout;horizontal=1;startSize=40;horizontalStack=0;resizeParent=1;resizeParentMax=0;resizeLast=0;collapsible=1;marginBottom=0;whiteSpace=wrap;html=1;strokeColor=#030303;fillColor=#FFFFFF;" parent="1" vertex="1">
                    <mxGeometry x="560" y="440" width="140" height="50" as="geometry"/>
                </mxCell>
                <mxCell id="8" value="&lt;font color=&quot;#080808&quot;&gt;+Opladen(): void&lt;br&gt;+MotoAanzetten(): void&lt;/font&gt;" style="rounded=0;whiteSpace=wrap;html=1;align=left;fillColor=#f5f5f5;fontColor=#333333;strokeColor=#666666;" parent="1" vertex="1">
                    <mxGeometry x="560" y="490" width="140" height="40" as="geometry"/>
                </mxCell>
                <mxCell id="10" value="&lt;font color=&quot;#0a0a0a&quot;&gt;BrandstofAuto&lt;/font&gt;" style="swimlane;fontStyle=0;childLayout=stackLayout;horizontal=1;startSize=30;horizontalStack=0;resizeParent=1;resizeParentMax=0;resizeLast=0;collapsible=1;marginBottom=0;whiteSpace=wrap;html=1;strokeColor=#666666;fillColor=#f5f5f5;fontColor=#333333;" parent="1" vertex="1">
                    <mxGeometry x="130" y="630" width="310" height="40" as="geometry"/>
                </mxCell>
                <mxCell id="-0TBXb-f6-NKO0b1xfG4-35" style="edgeStyle=orthogonalEdgeStyle;rounded=0;orthogonalLoop=1;jettySize=auto;html=1;entryX=0.5;entryY=0;entryDx=0;entryDy=0;strokeColor=#030303;" parent="1" source="11" target="-0TBXb-f6-NKO0b1xfG4-30" edge="1">
                    <mxGeometry relative="1" as="geometry"/>
                </mxCell>
                <mxCell id="21" value="" style="edgeStyle=none;html=1;strokeColor=#030303;fontColor=#050505;" parent="1" source="11" target="20" edge="1">
                    <mxGeometry relative="1" as="geometry"/>
                </mxCell>
                <mxCell id="22" value="" style="edgeStyle=none;html=1;strokeColor=#030303;fontColor=#050505;" parent="1" source="11" target="20" edge="1">
                    <mxGeometry relative="1" as="geometry"/>
                </mxCell>
                <mxCell id="11" value="&lt;font color=&quot;#050505&quot;&gt;+ BrandstofAuto(naam:String, type:String, bouwjaar:Int)&lt;br&gt;+Tanken(): void&lt;br&gt;+MotoAanzetten(): void&lt;/font&gt;" style="rounded=0;whiteSpace=wrap;html=1;align=left;strokeColor=#666666;fillColor=#f5f5f5;fontColor=#333333;" parent="1" vertex="1">
                    <mxGeometry x="130" y="670" width="310" height="50" as="geometry"/>
                </mxCell>
                <mxCell id="16" value="&lt;font color=&quot;#000000&quot;&gt;ElektrischeAuto&lt;/font&gt;" style="swimlane;fontStyle=0;childLayout=stackLayout;horizontal=1;startSize=30;horizontalStack=0;resizeParent=1;resizeParentMax=0;resizeLast=0;collapsible=1;marginBottom=0;whiteSpace=wrap;html=1;strokeColor=#666666;fillColor=#f5f5f5;fontColor=#333333;" parent="1" vertex="1">
                    <mxGeometry x="560" y="630" width="310" height="50" as="geometry"/>
                </mxCell>
                <mxCell id="-0TBXb-f6-NKO0b1xfG4-34" style="edgeStyle=orthogonalEdgeStyle;rounded=0;orthogonalLoop=1;jettySize=auto;html=1;entryX=0.5;entryY=0;entryDx=0;entryDy=0;strokeColor=#030303;" parent="1" source="18" target="-0TBXb-f6-NKO0b1xfG4-30" edge="1">
                    <mxGeometry relative="1" as="geometry"/>
                </mxCell>
                <mxCell id="18" value="&lt;font color=&quot;#080808&quot;&gt;+ ElektrischeAuto(naam:String, type:String, bouwjaar:Int)&lt;br&gt;+ Opladen(): void&lt;br&gt;+ MotoAanzetten(): void&lt;/font&gt;" style="rounded=0;whiteSpace=wrap;html=1;align=left;strokeColor=#666666;fillColor=#f5f5f5;fontColor=#333333;" parent="1" vertex="1">
                    <mxGeometry x="560" y="670" width="310" height="50" as="geometry"/>
                </mxCell>
                <mxCell id="-0TBXb-f6-NKO0b1xfG4-18" value="" style="endArrow=diamondThin;endFill=1;endSize=24;html=1;rounded=0;entryX=0.668;entryY=1.062;entryDx=0;entryDy=0;entryPerimeter=0;strokeColor=#030303;" parent="1" target="-0TBXb-f6-NKO0b1xfG4-29" edge="1">
                    <mxGeometry width="160" relative="1" as="geometry">
                        <mxPoint x="580" y="440" as="sourcePoint"/>
                        <mxPoint x="580" y="340" as="targetPoint"/>
                    </mxGeometry>
                </mxCell>
                <mxCell id="-0TBXb-f6-NKO0b1xfG4-19" value="" style="endArrow=diamondThin;endFill=1;endSize=24;html=1;rounded=0;entryX=0.334;entryY=1.046;entryDx=0;entryDy=0;entryPerimeter=0;strokeColor=#030303;" parent="1" target="-0TBXb-f6-NKO0b1xfG4-29" edge="1">
                    <mxGeometry width="160" relative="1" as="geometry">
                        <mxPoint x="420" y="440" as="sourcePoint"/>
                        <mxPoint x="420" y="340" as="targetPoint"/>
                    </mxGeometry>
                </mxCell>
                <mxCell id="-0TBXb-f6-NKO0b1xfG4-20" value="" style="endArrow=block;html=1;rounded=0;entryX=0.5;entryY=1;entryDx=0;entryDy=0;exitX=0.775;exitY=-0.009;exitDx=0;exitDy=0;exitPerimeter=0;dashed=1;endFill=0;strokeColor=#030303;" parent="1" source="10" target="6" edge="1">
                    <mxGeometry width="50" height="50" relative="1" as="geometry">
                        <mxPoint x="370" y="620" as="sourcePoint"/>
                        <mxPoint x="420" y="570" as="targetPoint"/>
                    </mxGeometry>
                </mxCell>
                <mxCell id="-0TBXb-f6-NKO0b1xfG4-21" value="" style="endArrow=block;html=1;rounded=0;entryX=0.5;entryY=1;entryDx=0;entryDy=0;exitX=0.775;exitY=-0.009;exitDx=0;exitDy=0;exitPerimeter=0;dashed=1;endFill=0;strokeColor=#030303;" parent="1" target="8" edge="1">
                    <mxGeometry width="50" height="50" relative="1" as="geometry">
                        <mxPoint x="629.85" y="629" as="sourcePoint"/>
                        <mxPoint x="629.85" y="550" as="targetPoint"/>
                    </mxGeometry>
                </mxCell>
                <mxCell id="-0TBXb-f6-NKO0b1xfG4-22" value="Use" style="text;html=1;align=center;verticalAlign=middle;whiteSpace=wrap;rounded=0;strokeColor=#030303;" parent="1" vertex="1">
                    <mxGeometry x="360" y="550" width="60" height="30" as="geometry"/>
                </mxCell>
                <mxCell id="-0TBXb-f6-NKO0b1xfG4-23" value="&lt;font color=&quot;#000000&quot;&gt;Use&lt;/font&gt;" style="text;html=1;align=center;verticalAlign=middle;whiteSpace=wrap;rounded=0;strokeColor=#6c8ebf;fillColor=#dae8fc;" parent="1" vertex="1">
                    <mxGeometry x="560" y="540" width="60" height="30" as="geometry"/>
                </mxCell>
                <mxCell id="-0TBXb-f6-NKO0b1xfG4-24" value="&lt;font color=&quot;#050505&quot;&gt;Composition&lt;/font&gt;" style="text;html=1;align=center;verticalAlign=middle;whiteSpace=wrap;rounded=0;strokeColor=#6c8ebf;fillColor=#dae8fc;" parent="1" vertex="1">
                    <mxGeometry x="470" y="390" width="60" height="30" as="geometry"/>
                </mxCell>
                <mxCell id="-0TBXb-f6-NKO0b1xfG4-26" value="&lt;font style=&quot;font-weight: normal;&quot; color=&quot;#030303&quot;&gt;showAuto&lt;/font&gt;" style="swimlane;fontStyle=1;align=center;verticalAlign=top;childLayout=stackLayout;horizontal=1;startSize=30;horizontalStack=0;resizeParent=1;resizeParentMax=0;resizeLast=0;collapsible=1;marginBottom=0;whiteSpace=wrap;html=1;strokeColor=#666666;fillColor=#f5f5f5;fontColor=#333333;" parent="1" vertex="1">
                    <mxGeometry x="260" y="250" width="480" height="140" as="geometry"/>
                </mxCell>
                <mxCell id="-0TBXb-f6-NKO0b1xfG4-38" value="&lt;font color=&quot;#000000&quot;&gt;- BrandstoAuto: IBrandstofAuto;&lt;br&gt;- ElektrischAuto: IElektrischAuto;&lt;br&gt;- Auto: Auto;&lt;/font&gt;" style="text;html=1;align=center;verticalAlign=middle;resizable=0;points=[];autosize=1;strokeColor=#030303;" parent="-0TBXb-f6-NKO0b1xfG4-26" vertex="1">
                    <mxGeometry y="30" width="480" height="60" as="geometry"/>
                </mxCell>
                <mxCell id="-0TBXb-f6-NKO0b1xfG4-28" value="" style="line;strokeWidth=1;align=left;verticalAlign=middle;spacingTop=-1;spacingLeft=3;spacingRight=3;rotatable=0;labelPosition=right;points=[];portConstraint=eastwest;strokeColor=#030303;" parent="-0TBXb-f6-NKO0b1xfG4-26" vertex="1">
                    <mxGeometry y="90" width="480" height="10" as="geometry"/>
                </mxCell>
                <mxCell id="-0TBXb-f6-NKO0b1xfG4-29" value="&lt;font color=&quot;#080808&quot;&gt;+TonenAuto(brandstoauto:IBrandstofAuto, elektrischauto:IElektrischAuto,&lt;span style=&quot;text-align: center;&quot;&gt;Auto:Auto&lt;/span&gt;)&lt;br&gt;+ToonInfoAuto(): void&lt;/font&gt;" style="text;align=left;verticalAlign=top;spacingLeft=4;spacingRight=4;overflow=hidden;rotatable=0;points=[[0,0.5],[1,0.5]];portConstraint=eastwest;whiteSpace=wrap;html=1;strokeColor=#030303;" parent="-0TBXb-f6-NKO0b1xfG4-26" vertex="1">
                    <mxGeometry y="100" width="480" height="40" as="geometry"/>
                </mxCell>
                <mxCell id="-0TBXb-f6-NKO0b1xfG4-30" value="&lt;font color=&quot;#030303&quot;&gt;Auto&lt;/font&gt;" style="swimlane;fontStyle=1;align=center;verticalAlign=top;childLayout=stackLayout;horizontal=1;startSize=26;horizontalStack=0;resizeParent=1;resizeParentMax=0;resizeLast=0;collapsible=1;marginBottom=0;whiteSpace=wrap;html=1;strokeColor=#666666;fillColor=#f5f5f5;fontColor=#333333;" parent="1" vertex="1">
                    <mxGeometry x="400" y="840" width="200" height="114" as="geometry"/>
                </mxCell>
                <mxCell id="-0TBXb-f6-NKO0b1xfG4-31" value="&lt;font color=&quot;#000000&quot;&gt;- Naam : String&lt;br style=&quot;border-color: var(--border-color);&quot;&gt;&lt;span style=&quot;&quot;&gt;- Type : String&amp;nbsp;&lt;/span&gt;&lt;br style=&quot;border-color: var(--border-color);&quot;&gt;&lt;span style=&quot;&quot;&gt;- Bouwjaar : Int&lt;/span&gt;&lt;/font&gt;" style="text;align=left;verticalAlign=top;spacingLeft=4;spacingRight=4;overflow=hidden;rotatable=0;points=[[0,0.5],[1,0.5]];portConstraint=eastwest;whiteSpace=wrap;html=1;strokeColor=#030303;" parent="-0TBXb-f6-NKO0b1xfG4-30" vertex="1">
                    <mxGeometry y="26" width="200" height="54" as="geometry"/>
                </mxCell>
                <mxCell id="-0TBXb-f6-NKO0b1xfG4-32" value="" style="line;strokeWidth=1;align=left;verticalAlign=middle;spacingTop=-1;spacingLeft=3;spacingRight=3;rotatable=0;labelPosition=right;points=[];portConstraint=eastwest;strokeColor=#030303;" parent="-0TBXb-f6-NKO0b1xfG4-30" vertex="1">
                    <mxGeometry y="80" width="200" height="8" as="geometry"/>
                </mxCell>
                <mxCell id="-0TBXb-f6-NKO0b1xfG4-33" value="&lt;font color=&quot;#000000&quot;&gt;+ MotoAanzetten(): void&lt;/font&gt;" style="text;align=left;verticalAlign=top;spacingLeft=4;spacingRight=4;overflow=hidden;rotatable=0;points=[[0,0.5],[1,0.5]];portConstraint=eastwest;whiteSpace=wrap;html=1;strokeColor=#030303;" parent="-0TBXb-f6-NKO0b1xfG4-30" vertex="1">
                    <mxGeometry y="88" width="200" height="26" as="geometry"/>
                </mxCell>
                <mxCell id="-0TBXb-f6-NKO0b1xfG4-36" value="&lt;font color=&quot;#000000&quot;&gt;Is&lt;/font&gt;" style="text;html=1;align=center;verticalAlign=middle;whiteSpace=wrap;rounded=0;strokeColor=#6c8ebf;fillColor=#dae8fc;" parent="1" vertex="1">
                    <mxGeometry x="470" y="750" width="60" height="30" as="geometry"/>
                </mxCell>
                <mxCell id="20" value="&lt;font color=&quot;#050505&quot;&gt;+ BrandstofAuto(naam:String, type:String, bouwjaar:Int)&lt;br&gt;+Tanken(): void&lt;br&gt;+MotoAanzetten(): void&lt;/font&gt;" style="rounded=0;whiteSpace=wrap;html=1;align=left;strokeColor=#666666;fillColor=#f5f5f5;fontColor=#333333;" parent="1" vertex="1">
                    <mxGeometry x="130" y="540" width="310" height="50" as="geometry"/>
                </mxCell>
            </root>
        </mxGraphModel>
    </diagram>
</mxfile>